<?xml version="1.0" encoding="UTF-8"?> <svg xmlns="http://www.w3.org/2000/svg" width="412" height="412" viewBox="0 0 412 412" fill="none"> <circle cx="206" cy="206" r="206" fill="#776B61"></circle> <g clip-path="url(#clip0_355_7)"> <path d="M336.595 266.448C336.274 265.757 335.975 265.183 335.697 264.724C331.1 256.443 322.313 246.279 309.344 234.229L309.07 233.953L308.933 233.818L308.794 233.679H308.655C302.769 228.068 299.041 224.295 297.48 222.363C294.624 218.684 293.985 214.959 295.546 211.186C296.648 208.334 300.791 202.313 307.963 193.113C311.736 188.237 314.724 184.33 316.931 181.386C332.845 160.229 339.745 146.709 337.628 140.821L336.806 139.445C336.254 138.617 334.828 137.859 332.531 137.168C330.229 136.479 327.286 136.365 323.698 136.824L283.962 137.099C283.319 136.871 282.399 136.892 281.202 137.168L279.408 137.583L278.716 137.929L278.167 138.344C277.707 138.619 277.201 139.101 276.649 139.792C276.099 140.479 275.64 141.286 275.272 142.206C270.946 153.336 266.027 163.684 260.507 173.25C257.104 178.954 253.978 183.897 251.123 188.082C248.272 192.266 245.881 195.349 243.951 197.325C242.018 199.303 240.273 200.888 238.706 202.085C237.142 203.282 235.948 203.788 235.121 203.603C234.292 203.418 233.512 203.234 232.773 203.051C231.486 202.223 230.451 201.096 229.67 199.67C228.886 198.245 228.359 196.45 228.083 194.289C227.808 192.126 227.646 190.265 227.6 188.701C227.557 187.139 227.576 184.929 227.67 182.077C227.765 179.225 227.808 177.294 227.808 176.283C227.808 172.787 227.876 168.993 228.013 164.899C228.152 160.806 228.265 157.563 228.359 155.174C228.453 152.782 228.496 150.252 228.496 147.584C228.496 144.916 228.334 142.824 228.013 141.306C227.693 139.786 227.208 138.306 226.568 136.89C225.923 135.465 224.979 134.362 223.74 133.579C222.498 132.797 220.955 132.177 219.118 131.716C214.242 130.612 208.034 130.016 200.49 129.923C183.382 129.739 172.389 130.844 167.514 133.236C165.582 134.246 163.834 135.627 162.271 137.373C160.615 139.398 160.384 140.502 161.58 140.684C167.1 141.511 171.007 143.489 173.307 146.616L174.136 148.273C174.781 149.469 175.424 151.585 176.068 154.62C176.712 157.655 177.127 161.012 177.309 164.69C177.769 171.406 177.769 177.155 177.309 181.937C176.849 186.721 176.414 190.446 175.999 193.114C175.584 195.781 174.963 197.943 174.136 199.598C173.307 201.254 172.756 202.266 172.479 202.633C172.203 203 171.973 203.232 171.791 203.322C170.602 203.781 169.339 204.015 168.065 204.014C166.776 204.014 165.213 203.369 163.374 202.081C161.535 200.793 159.626 199.023 157.648 196.769C155.67 194.515 153.44 191.364 150.955 187.317C148.473 183.27 145.897 178.488 143.229 172.969L141.022 168.966C139.643 166.392 137.758 162.642 135.366 157.722C132.973 152.8 130.858 148.039 129.019 143.44C128.284 141.509 127.18 140.038 125.708 139.026L125.018 138.611C124.559 138.244 123.822 137.854 122.811 137.438C121.79 137.021 120.725 136.72 119.637 136.542L81.8321 136.817C77.9689 136.817 75.3477 137.692 73.9675 139.44L73.4151 140.267C73.1392 140.727 73 141.463 73 142.475C73 143.487 73.2759 144.729 73.8283 146.2C79.3471 159.17 85.3488 171.679 91.8332 183.729C98.3176 195.779 103.952 205.485 108.734 212.839C113.517 220.199 118.392 227.145 123.36 233.674C128.327 240.205 131.615 244.39 133.224 246.229C134.835 248.071 136.1 249.449 137.02 250.368L140.47 253.679C142.677 255.887 145.919 258.532 150.196 261.612C154.474 264.695 159.211 267.73 164.408 270.722C169.606 273.709 175.653 276.146 182.552 278.032C189.451 279.919 196.165 280.676 202.697 280.311H218.564C221.782 280.033 224.22 279.021 225.877 277.274L226.426 276.583C226.795 276.034 227.141 275.181 227.46 274.033C227.783 272.884 227.943 271.617 227.943 270.239C227.849 266.285 228.15 262.721 228.838 259.547C229.526 256.375 230.31 253.984 231.186 252.373C232.062 250.764 233.051 249.406 234.152 248.305C235.254 247.202 236.04 246.533 236.501 246.303C236.959 246.072 237.325 245.915 237.601 245.82C239.809 245.085 242.407 245.797 245.399 247.961C248.389 250.122 251.193 252.791 253.816 255.964C256.438 259.139 259.588 262.701 263.267 266.655C266.948 270.611 270.166 273.552 272.925 275.486L275.683 277.142C277.525 278.247 279.917 279.259 282.861 280.178C285.8 281.097 288.374 281.328 290.585 280.868L325.905 280.317C329.399 280.317 332.117 279.739 334.045 278.591C335.978 277.441 337.125 276.175 337.495 274.797C337.865 273.418 337.884 271.853 337.566 270.103C337.238 268.358 336.916 267.138 336.595 266.448Z" fill="white"></path> </g> <defs> <clipPath id="clip0_355_7"> <rect width="265" height="265" fill="white" transform="translate(73 73)"></rect> </clipPath> </defs> </svg> 