<?xml version="1.0" encoding="UTF-8"?> <svg xmlns="http://www.w3.org/2000/svg" width="412" height="412" viewBox="0 0 412 412" fill="none"> <circle cx="206" cy="206" r="206" fill="#776B61"></circle> <g clip-path="url(#clip0_355_8)"> <path d="M205.529 89H205.471C141.236 89 89 141.25 89 205.5C89 230.984 97.2133 254.605 111.179 273.784L96.6599 317.063L141.44 302.748C159.861 314.952 181.836 322 205.529 322C269.764 322 322 269.735 322 205.5C322 141.265 269.764 89 205.529 89Z" fill="#FAFAFA"></path> <path d="M273.318 253.513C270.507 261.449 259.352 268.031 250.454 269.954C244.367 271.25 236.416 272.284 209.65 261.187C175.414 247.003 153.366 212.213 151.648 209.956C150.002 207.699 137.813 191.535 137.813 174.817C137.813 158.099 146.303 149.959 149.726 146.464C152.536 143.595 157.182 142.284 161.638 142.284C163.079 142.284 164.375 142.357 165.54 142.415C168.963 142.561 170.681 142.765 172.938 148.167C175.749 154.939 182.593 171.657 183.409 173.375C184.239 175.093 185.069 177.423 183.904 179.681C182.812 182.011 181.85 183.045 180.132 185.025C178.414 187.006 176.783 188.52 175.064 190.646C173.492 192.496 171.715 194.476 173.695 197.898C175.676 201.248 182.52 212.417 192.598 221.388C205.602 232.965 216.145 236.664 219.917 238.236C222.727 239.401 226.077 239.125 228.13 236.94C230.737 234.13 233.955 229.47 237.232 224.883C239.562 221.592 242.503 221.184 245.591 222.349C248.736 223.441 265.381 231.669 268.803 233.373C272.225 235.091 274.483 235.906 275.313 237.348C276.128 238.79 276.128 245.561 273.318 253.513Z" fill="#776B61"></path> </g> <defs> <clipPath id="clip0_355_8"> <rect width="233" height="233" fill="white" transform="translate(89 89)"></rect> </clipPath> </defs> </svg> 