<?xml version="1.0" encoding="UTF-8"?> <svg xmlns="http://www.w3.org/2000/svg" width="412" height="412" viewBox="0 0 412 412" fill="none"><circle cx="206" cy="206" r="206" fill="#776B61"></circle><path d="M286.45 117.632C256.12 130.191 126.076 184.058 90.1441 198.74C66.0457 208.144 80.1519 216.96 80.1519 216.96C80.1519 216.96 100.722 224.012 118.354 229.302C135.986 234.593 145.39 228.714 145.39 228.714L228.261 172.878C257.647 152.896 250.595 169.352 243.543 176.404C228.261 191.686 202.989 215.782 181.831 235.178C172.426 243.406 177.129 250.461 181.243 253.986C196.525 266.917 238.253 293.365 240.605 295.129C253.022 303.918 277.445 316.572 281.16 289.839L295.854 197.564C300.556 166.414 305.258 137.613 305.846 129.385C307.608 109.404 286.45 117.632 286.45 117.632Z" fill="white"></path></svg> 